<svg width="150" height="39" viewBox="0 0 150 39" fill="none" xmlns="http://www.w3.org/2000/svg">
<g clip-path="url(#clip0_6_1229)">
<path d="M16.6568 3.5L16.0318 6.34725L16.6568 9.47512C22.1846 9.47512 26.6817 13.9722 26.6817 19.5C26.6817 25.0278 22.1846 29.5249 16.6568 29.5249L16.0318 32.0909L16.6568 35.5C25.4934 35.5 32.6568 28.3366 32.6568 19.5C32.6568 10.6634 25.4934 3.5 16.6568 3.5Z" fill="#29CCCC"/>
<path d="M22.6983 19.5C22.6983 16.1634 19.9934 13.4585 16.6568 13.4585L16.0318 19.5L16.6568 25.5415C19.9934 25.5415 22.6983 22.8366 22.6983 19.5Z" fill="#282866"/>
<path d="M6.63186 29.5249V19.5C6.63186 13.9722 11.129 9.47512 16.6567 9.47512V3.5C7.82018 3.5 0.656738 10.6634 0.656738 19.5V35.5H16.6567V29.5249H6.63186Z" fill="#2EE6E6"/>
<path d="M10.6153 19.5C10.6153 22.8366 13.3202 25.5415 16.6568 25.5415V13.4585C13.3202 13.4585 10.6153 16.1634 10.6153 19.5Z" fill="#4A4080"/>
</g>
<path d="M46.3915 31V7.43357H52.0875V17.3987H52.3981L60.1884 7.43357H66.897L58.5429 17.951L67.0466 31H60.2344L54.3659 21.7368L52.0875 24.6136V31H46.3915ZM74.1263 31.2992C72.9986 31.2992 71.9975 31.1112 71.123 30.7353C70.2561 30.3518 69.5695 29.7764 69.0632 29.0093C68.5646 28.2345 68.3153 27.264 68.3153 26.098C68.3153 25.1161 68.4879 24.2876 68.8331 23.6125C69.1783 22.9374 69.6539 22.3889 70.26 21.967C70.866 21.545 71.5641 21.2267 72.3542 21.0119C73.1444 20.7894 73.9882 20.6398 74.8858 20.5631C75.8907 20.4711 76.7001 20.3752 77.3138 20.2754C77.9275 20.168 78.3724 20.0184 78.6486 19.8267C78.9324 19.6272 79.0744 19.3472 79.0744 18.9866V18.9291C79.0744 18.3384 78.8711 17.882 78.4645 17.5598C78.0579 17.2376 77.5094 17.0765 76.819 17.0765C76.0749 17.0765 75.4765 17.2376 75.0239 17.5598C74.5713 17.882 74.2836 18.3269 74.1608 18.8946L68.9712 18.7105C69.1246 17.6365 69.5197 16.6776 70.1564 15.8337C70.8008 14.9822 71.683 14.3148 72.803 13.8315C73.9307 13.3405 75.2847 13.095 76.865 13.095C77.9927 13.095 79.0322 13.2293 79.9834 13.4978C80.9347 13.7586 81.7632 14.1422 82.4689 14.6485C83.1747 15.1471 83.7194 15.7608 84.1029 16.4896C84.4942 17.2184 84.6898 18.0507 84.6898 18.9866V31H79.3966V28.5375H79.2585C78.9439 29.1359 78.5412 29.6422 78.0502 30.0564C77.5669 30.4707 76.9954 30.7814 76.3357 30.9885C75.6836 31.1956 74.9472 31.2992 74.1263 31.2992ZM75.8639 27.6169C76.4699 27.6169 77.0146 27.4942 77.4979 27.2487C77.9889 27.0032 78.3801 26.6657 78.6716 26.2361C78.9631 25.7988 79.1089 25.2925 79.1089 24.7172V23.0371C78.9478 23.1215 78.7522 23.1982 78.522 23.2673C78.2995 23.3363 78.0541 23.4015 77.7856 23.4629C77.5171 23.5243 77.2409 23.578 76.9571 23.624C76.6732 23.67 76.4009 23.7122 76.1401 23.7506C75.6107 23.8349 75.1581 23.9654 74.7822 24.1418C74.414 24.3182 74.1302 24.5484 73.9307 24.8322C73.7389 25.1084 73.643 25.4383 73.643 25.8218C73.643 26.4049 73.8502 26.8498 74.2644 27.1566C74.6863 27.4635 75.2195 27.6169 75.8639 27.6169ZM88.1304 31V13.3252H93.4812V16.5702H93.6768C94.045 15.4962 94.6664 14.6485 95.5409 14.0271C96.4155 13.4057 97.4588 13.095 98.6709 13.095C99.8983 13.095 100.949 13.4096 101.824 14.0386C102.698 14.6677 103.254 15.5115 103.492 16.5702H103.676C104.006 15.5192 104.651 14.6792 105.61 14.0501C106.569 13.4134 107.7 13.095 109.004 13.095C110.677 13.095 112.034 13.632 113.078 14.706C114.121 15.7723 114.643 17.2376 114.643 19.1017V31H109.016V20.3905C109.016 19.5083 108.789 18.8371 108.337 18.3768C107.884 17.9088 107.297 17.6748 106.576 17.6748C105.801 17.6748 105.192 17.928 104.747 18.4343C104.309 18.9329 104.091 19.6042 104.091 20.448V31H98.6824V20.333C98.6824 19.5121 98.4599 18.8639 98.015 18.3883C97.57 17.9127 96.9832 17.6748 96.2544 17.6748C95.7634 17.6748 95.33 17.7937 94.9541 18.0316C94.5782 18.2617 94.2828 18.5916 94.068 19.0212C93.8609 19.4508 93.7573 19.9571 93.7573 20.5401V31H88.1304ZM118.129 31V13.3252H123.756V31H118.129ZM120.948 11.2654C120.158 11.2654 119.479 11.0046 118.912 10.4829C118.344 9.95361 118.06 9.31689 118.06 8.57277C118.06 7.83632 118.344 7.20727 118.912 6.68561C119.479 6.15629 120.158 5.89163 120.948 5.89163C121.746 5.89163 122.425 6.15629 122.985 6.68561C123.553 7.20727 123.837 7.83632 123.837 8.57277C123.837 9.31689 123.553 9.95361 122.985 10.4829C122.425 11.0046 121.746 11.2654 120.948 11.2654ZM135.6 31.3337C133.751 31.3337 132.155 30.9693 130.813 30.2405C129.478 29.5041 128.45 28.4569 127.729 27.0991C127.016 25.7336 126.659 24.1111 126.659 22.2316C126.659 20.4058 127.019 18.8102 127.741 17.4447C128.462 16.0715 129.478 15.0052 130.79 14.2457C132.102 13.4786 133.647 13.095 135.427 13.095C136.685 13.095 137.836 13.2907 138.879 13.6819C139.923 14.0731 140.824 14.6523 141.583 15.4195C142.343 16.1866 142.934 17.134 143.356 18.2617C143.778 19.3817 143.988 20.6667 143.988 22.1166V23.5204H128.627V20.2524H138.753C138.745 19.6541 138.603 19.1209 138.327 18.6529C138.051 18.185 137.671 17.8206 137.188 17.5598C136.712 17.2913 136.164 17.157 135.542 17.157C134.913 17.157 134.349 17.2989 133.851 17.5828C133.352 17.859 132.957 18.2387 132.666 18.722C132.374 19.1976 132.221 19.7384 132.205 20.3445V23.67C132.205 24.3911 132.347 25.024 132.631 25.5687C132.915 26.1057 133.318 26.5238 133.839 26.8229C134.361 27.1221 134.982 27.2717 135.703 27.2717C136.202 27.2717 136.655 27.2027 137.061 27.0646C137.468 26.9265 137.817 26.7232 138.108 26.4547C138.4 26.1862 138.619 25.8564 138.764 25.4651L143.931 25.6147C143.716 26.7731 143.244 27.7819 142.516 28.6411C141.794 29.4926 140.847 30.1561 139.673 30.6318C138.5 31.0997 137.142 31.3337 135.6 31.3337Z" fill="#474747"/>
<defs>
<clipPath id="clip0_6_1229">
<rect width="32" height="32" fill="white" transform="translate(0.656738 3.5)"/>
</clipPath>
</defs>
</svg>
